<svg xmlns="http://www.w3.org/2000/svg" viewBox="0 0 1200 1000" >
  <defs>
    <radialGradient id="fill" cx="0" cy="0" r="1.41421" class="logo--fill" >
      <stop offset="0" stop-color="#04c5cc"/>
      <stop offset="1" stop-color="#2581f8"/>
    </radialGradient>
  </defs>
  <g class="logo__a">
    <path id="a1" class="logo__a1"
          fill="none"
          d="M 193.81,523.08
             C 206.58,537.30 199.23,560.91 180.14,564.52
               153.78,569.50 140.33,537.38 158.23,521.31
               161.95,517.97 165.37,516.59 170.14,515.45
               179.16,514.19 187.50,516.04 193.81,523.08 Z" />
    <path id="a2" class="logo__a2"
          fill="none"
          d="M 193.73,573.04
             C 206.50,587.27 199.15,610.88 180.06,614.49
               153.70,619.47 140.25,587.35 158.15,571.28
               161.87,567.93 165.29,566.55 170.06,565.42
               179.08,564.16 187.42,566.01 193.73,573.04 Z" />
    <path id="a3" class="logo__a3"
          fill="none"
          d="M 243.67,473.09
             C 256.45,487.32 249.09,510.93 230.00,514.53
               203.64,519.51 190.19,487.39 208.09,471.33
               211.82,467.98 215.24,466.60 220.00,465.47
               229.03,464.21 237.36,466.06 243.67,473.09 Z" />
    <path id="a4" class="logo__a4"
          fill="none"
          d="M 463.69,668.10
             C 476.46,682.32 469.11,705.93 450.02,709.54
               423.66,714.52 410.21,682.40 428.11,666.33
               431.83,662.99 435.25,661.61 440.02,660.47
               449.04,659.21 457.37,661.06 463.69,668.10 Z" />
    <path id="a5" class="logo__a5"
          fill="none"
          d="M 513.76,668.16
             C 526.53,682.39 519.17,706.00 500.08,709.60
               473.72,714.59 460.28,682.47 478.17,666.40
               481.90,663.05 485.32,661.67 490.08,660.54
               499.11,659.28 507.44,661.13 513.76,668.16 Z" />
    <path id="a6" class="logo__a6"
          fill="none"
          d="M 613.76,783.05
             C 626.54,797.28 619.18,820.88 600.09,824.49
               573.73,829.47 560.28,797.35 578.18,781.28
               581.91,777.94 585.33,776.56 590.09,775.42
               599.12,774.16 607.45,776.02 613.76,783.05 Z" />
    <path id="a7" class="logo__a7"
          fill="none"
          d="M 663.63,783.07
             C 676.40,797.30 669.05,820.91 649.96,824.51
               623.60,829.50 610.15,797.38 628.05,781.31
               631.77,777.96 635.19,776.58 639.96,775.45
               648.98,774.19 657.32,776.04 663.63,783.07 Z" />
    <path id="a8" class="logo__a8"
          fill="none"
          d="M 783.71,668.03
             C 796.48,682.25 789.13,705.86 770.03,709.47
               743.68,714.45 730.23,682.33 748.13,666.26
               751.85,662.92 755.27,661.54 760.03,660.40
               769.06,659.14 777.39,660.99 783.71,668.03 Z" />
    <path id="a9" class="logo__a9"
          fill="none"
          d="M 833.80,668.04
             C 846.57,682.27 839.22,705.88 820.13,709.48
               793.77,714.46 780.32,682.34 798.22,666.28
               801.94,662.93 805.36,661.55 810.13,660.42
               819.15,659.16 827.48,661.01 833.80,668.04 Z" />
    <path id="a10" class="logo__a10"
          fill="none"
          d="M 953.70,523.13
             C 966.47,537.36 959.11,560.97 940.02,564.57
               913.66,569.55 900.22,537.43 918.12,521.37
               921.84,518.02 925.26,516.64 930.02,515.50
               939.05,514.25 947.38,516.10 953.70,523.13 Z" />
    <path id="a11" class="logo__a11"
          fill="none"
          d="M 1003.55,522.85
             C 1016.32,537.08 1008.97,560.69 989.88,564.30
               963.52,569.28 950.07,537.16 967.97,521.09
               971.69,517.74 975.11,516.36 979.88,515.23
               988.90,513.97 997.23,515.82 1003.55,522.85 Z" />
  </g>
  <g class="logo__b">
    <path id="b1" class="logo__b1"
          fill="none"
          d="M 396.00,391.75
             C 430.49,403.05 426.76,453.08 391.00,459.54
               357.42,465.60 336.21,423.97 360.09,400.09
               365.45,394.74 371.74,392.08 379.00,390.46
               385.08,389.62 390.13,389.82 396.00,391.75 Z" />
    <path id="b2" class="logo__b2"
          fill="none"
          d="M 716.00,263.75
             C 750.49,275.05 746.76,325.08 711.00,331.54
               677.42,337.60 656.21,295.97 680.09,272.09
               685.45,266.74 691.74,264.08 699.00,262.46
               705.08,261.62 710.13,261.82 716.00,263.75 Z" />
    <path id="b3" class="logo__b3"
          fill="none"
          d="M 886.00,344.75
             C 920.49,356.05 916.76,406.08 881.00,412.54
               847.42,418.60 826.21,376.97 850.09,353.09
               855.45,347.74 861.74,345.08 869.00,343.46
               875.08,342.62 880.13,342.82 886.00,344.75 Z" />
  </g>
  <g class="logo__c">
    <path id=" c1" class="logo__c1"
          fill="none"
          d="M 228.00,365.21
             C 241.55,365.02 259.49,368.82 272.00,374.01
               294.70,383.42 314.36,398.58 328.25,419.00
               361.24,467.49 356.54,534.99 315.00,577.00
               304.35,587.76 294.65,595.25 281.00,601.89
               260.49,611.87 242.67,615.26 220.00,615.00
               204.49,614.81 186.00,609.83 172.00,603.29
               114.07,576.24 86.87,508.32 107.05,448.00
               120.17,411.91 147.68,384.36 184.00,371.69
               194.11,368.17 203.54,366.94 214.00,365.21
               214.00,365.21 228.00,365.21 228.00,365.21 Z" />
    <path id=" c2" class="logo__c2"
          fill="none"
          d="M 425.00,296.00
             C 455.13,305.95 478.88,322.48 496.97,349.00
               530.83,398.63 527.25,469.10 486.83,514.00
               474.85,527.31 461.93,537.58 446.00,545.74
               424.74,556.64 402.63,560.27 379.00,560.00
               367.42,559.86 352.98,556.66 342.00,553.00
               265.22,527.39 228.83,441.06 262.31,368.00
               275.34,339.57 300.36,314.52 329.00,301.86
               345.60,294.52 355.53,292.96 373.00,290.42
               388.35,288.56 410.32,291.16 425.00,296.00 Z" />
    <path id=" c3" class="logo__c3"
          fill="none"
          d="M 745.00,168.00
             C 775.13,177.95 798.88,194.48 816.97,221.00
               850.83,270.63 847.25,341.10 806.83,386.00
               794.85,399.31 781.93,409.58 766.00,417.74
               744.74,428.64 722.63,432.27 699.00,432.00
               687.42,431.86 672.98,428.66 662.00,425.00
               585.22,399.39 548.83,313.06 582.31,240.00
               595.34,211.57 620.36,186.52 649.00,173.86
               665.60,166.52 675.53,164.96 693.00,162.42
               708.35,160.56 730.32,163.16 745.00,168.00 Z" />
    <path id=" c4" class="logo__c4"
          fill="none"
          d="M 915.00,249.00
             C 945.13,258.95 968.88,275.48 986.97,302.00
               1020.83,351.63 1017.25,422.10 976.83,467.00
               964.85,480.31 951.93,490.58 936.00,498.74
               914.74,509.64 892.63,513.27 869.00,513.00
               857.42,512.86 842.98,509.66 832.00,506.00
               755.22,480.39 718.83,394.06 752.31,321.00
               765.34,292.57 790.36,267.52 819.00,254.86
               835.60,247.52 845.53,245.96 863.00,243.42
               878.35,241.56 900.32,244.16 915.00,249.00 Z" />
  </g>
  <path class="logo__nm"
        fill="url(#fill)"
        stroke="url(#fill)"
        d="M 670.00,800.00
           C 670.00,800.00 670.00,297.00 670.00,297.00
             670.00,250.00 740.00,250.00 740.00,297.00
             740.00,297.00 740.00,685.00 740.00,685.00
             740.00,700.00 750.00,710.00 765.00,710.00
             765.00,710.00 815.00,710.00 815.00,710.00
             830.00,710.00 840.00,700.00 840.00,685.00
             840.00,685.00 840.00,378.00 840.00,378.00
             840.00,331.00 910.00,331.00 910.00,378.00
             910.00,378.00 910.00,540.23 910.00,540.23
             910.00,555.09 920.00,565.09 934.80,565.09
             934.80,565.09 984.98,565.09 984.98,565.09
             1000.00,565.09 1010.00,555.09 1010.00,540.23
             1010.00,540.23 1010.00,378.00 1010.00,378.00
             1010.00,267.64 898.82,225.55 831.75,249.89
             786.55,120.91 575.82,133.09 570.00,297.00
             570.00,297.00 570.00,800.00 570.00,800.00
             570.00,815.00 580.00,825.00 595.00,825.00
             595.00,825.00 645.00,825.00 645.00,825.00
             660.00,825.00 670.00,815.00 670.00,800.00 Z
           M 150.00,540.00
           C 150.00,540.00 150.00,590.00 150.00,590.00
             150.00,605.00 160.00,615.00 175.00,615.00
             175.00,615.00 225.00,615.00 225.00,615.00
             295.00,615.00 350.00,560.00 350.00,490.00
             350.00,490.00 350.00,425.00 350.00,425.00
             350.00,378.00 420.00,378.00 420.00,425.00
             420.00,425.00 420.00,685.00 420.00,685.00
             420.00,700.00 430.00,710.00 445.00,710.00
             445.00,710.00 495.00,710.00 495.00,710.00
             510.00,710.00 520.00,700.00 520.00,685.00
             520.00,685.00 520.00,425.00 520.00,425.00
             520.00,335.51 445.33,290.00 385.00,290.00
             324.67,290.00 250.00,335.49 250.00,425.00
             250.00,425.00 250.00,490.00 250.00,490.00
             250.00,505.00 240.00,515.00 225.00,515.00
             225.00,515.00 175.00,515.00 175.00,515.00
             160.00,515.00 150.00,525.00 150.00,540.00 Z" />
  </svg>

