<svg xmlns="http://www.w3.org/2000/svg"
     width="20in" height="1.875in"
     viewBox="0 0 2160 210">
  <path d="M 1120.03,90.00
           C 1125.33,78.26 1127.35,82.22 1129.17,67.00
             1129.73,62.27 1137.29,36.11 1139.33,32.04
             1140.81,29.06 1145.50,22.99 1149.35,25.84
             1154.31,29.52 1151.89,42.58 1152.01,48.00
             1152.33,62.01 1158.31,74.83 1162.28,88.00
             1162.28,88.00 1176.59,135.00 1176.59,135.00
             1180.29,143.34 1186.37,151.63 1191.78,159.00
             1193.34,161.12 1196.71,165.58 1199.79,164.66
             1202.56,163.84 1204.14,158.49 1204.85,156.00
             1204.85,156.00 1212.52,131.00 1212.52,131.00
             1216.37,122.86 1218.64,113.98 1219.72,105.00
             1219.72,105.00 1220.52,96.00 1220.52,96.00
             1220.52,96.00 1223.19,86.00 1223.19,86.00
             1223.19,86.00 1230.30,52.00 1230.30,52.00
             1230.30,52.00 1237.41,32.00 1237.41,32.00
             1239.54,25.07 1242.83,14.53 1247.53,9.06
             1255.49,-0.21 1257.14,14.73 1256.78,20.00
             1256.78,20.00 1256.78,27.00 1256.78,27.00
             1257.28,37.79 1264.76,53.21 1267.52,64.00
             1267.52,64.00 1271.55,95.00 1271.55,95.00
             1273.25,101.21 1278.01,104.15 1280.36,110.00
             1283.72,118.20 1280.97,122.55 1280.36,130.00
             1280.02,133.54 1281.91,142.64 1283.26,145.98
             1283.91,147.60 1285.32,150.41 1287.53,149.09
             1289.27,148.05 1289.73,144.81 1290.08,143.00
             1291.25,137.02 1292.03,135.52 1294.42,130.00
             1294.42,130.00 1304.31,107.00 1304.31,107.00
             1304.31,107.00 1311.58,91.00 1311.58,91.00
             1311.58,91.00 1316.75,74.00 1316.75,74.00
             1318.23,69.58 1324.97,56.25 1330.87,58.40
             1335.02,59.92 1337.06,69.08 1337.75,73.00
             1339.94,85.50 1338.26,99.88 1347.00,110.00
             1349.01,99.35 1351.33,98.02 1355.05,89.00
             1355.05,89.00 1358.57,78.00 1358.57,78.00
             1360.17,74.79 1364.68,69.86 1368.58,72.69
             1370.52,74.09 1371.58,77.79 1372.33,80.00
             1372.33,80.00 1377.52,99.00 1377.52,99.00
             1378.68,101.53 1382.03,107.49 1385.59,105.83
             1387.84,104.78 1388.74,100.19 1389.54,98.00
             1389.54,98.00 1393.78,88.00 1393.78,88.00
             1395.47,82.65 1395.86,76.96 1399.35,72.23
             1404.05,65.86 1409.07,73.59 1410.91,78.00
             1410.91,78.00 1413.81,86.00 1413.81,86.00
             1415.67,90.97 1416.03,92.85 1417.00,98.00
             1423.85,92.51 1424.71,81.78 1430.90,84.17
             1435.96,86.11 1434.95,94.25 1443.00,93.20
             1444.84,92.96 1445.98,92.40 1448.00,92.51
             1448.00,92.51 1465.00,96.71 1465.00,96.71
             1465.00,96.71 1483.00,95.92 1483.00,95.92
             1483.00,95.92 1495.00,95.92 1495.00,95.92
             1502.10,95.12 1502.04,94.01 1511.00,94.00
             1511.00,94.00 1535.00,94.00 1535.00,94.00
             1535.00,94.00 1557.00,96.00 1557.00,96.00
             1557.00,96.00 1599.00,96.00 1599.00,96.00
             1599.00,96.00 1614.00,96.91 1614.00,96.91
             1614.00,96.91 1652.00,96.92 1652.00,96.92
             1652.00,96.92 1662.00,96.92 1662.00,96.92
             1662.00,96.92 1676.00,96.92 1676.00,96.92
             1676.00,96.92 1693.00,96.00 1693.00,96.00
             1693.00,96.00 1706.00,97.00 1706.00,97.00
             1706.00,97.00 1730.00,97.00 1730.00,97.00
             1730.00,97.00 1745.00,96.00 1745.00,96.00
             1745.00,96.00 1800.00,96.00 1800.00,96.00
             1800.00,96.00 1824.00,97.96 1824.00,97.96
             1824.00,97.96 1835.00,97.00 1835.00,97.00
             1835.00,97.00 1851.00,98.00 1851.00,98.00
             1851.00,98.00 1875.00,98.00 1875.00,98.00
             1875.00,98.00 1893.00,97.18 1893.00,97.18
             1893.00,97.18 1920.00,98.00 1920.00,98.00
             1920.00,98.00 1920.00,102.00 1920.00,102.00
             1920.00,102.00 1903.00,101.18 1903.00,101.18
             1903.00,101.18 1886.00,102.00 1886.00,102.00
             1886.00,102.00 1872.00,102.96 1872.00,102.96
             1872.00,102.96 1863.00,102.32 1863.00,102.32
             1863.00,102.32 1835.00,101.01 1835.00,101.01
             1835.00,101.01 1815.00,102.00 1815.00,102.00
             1815.00,102.00 1798.00,101.00 1798.00,101.00
             1798.00,101.00 1783.00,100.00 1783.00,100.00
             1783.00,100.00 1741.00,101.26 1741.00,101.26
             1741.00,101.26 1730.00,101.26 1730.00,101.26
             1730.00,101.26 1716.00,102.00 1716.00,102.00
             1716.00,102.00 1699.00,101.30 1699.00,101.30
             1699.00,101.30 1680.00,102.00 1680.00,102.00
             1680.00,102.00 1669.00,102.92 1669.00,102.92
             1669.00,102.92 1658.00,102.00 1658.00,102.00
             1658.00,102.00 1634.00,102.96 1634.00,102.96
             1634.00,102.96 1609.00,101.00 1609.00,101.00
             1609.00,101.00 1590.00,101.00 1590.00,101.00
             1590.00,101.00 1569.00,100.10 1569.00,100.10
             1569.00,100.10 1526.00,100.10 1526.00,100.10
             1526.00,100.10 1516.00,100.10 1516.00,100.10
             1516.00,100.10 1509.00,100.10 1509.00,100.10
             1509.00,100.10 1505.00,100.10 1505.00,100.10
             1505.00,100.10 1491.00,101.02 1491.00,101.02
             1491.00,101.02 1468.00,101.02 1468.00,101.02
             1468.00,101.02 1457.00,102.18 1457.00,102.18
             1452.75,101.72 1450.37,98.91 1447.00,98.80
             1444.25,98.72 1441.66,100.75 1439.02,100.48
             1433.93,99.95 1433.59,93.20 1430.02,93.20
             1427.73,93.20 1426.68,96.31 1425.95,98.00
             1424.04,102.45 1421.55,110.32 1415.11,106.82
             1411.87,105.07 1410.72,101.29 1409.72,98.00
             1406.94,88.79 1408.83,89.06 1403.00,80.00
             1399.87,90.81 1397.20,95.89 1392.99,106.00
             1391.92,108.57 1389.70,114.51 1386.79,115.26
             1383.54,116.09 1378.24,111.09 1376.18,108.91
             1374.40,107.03 1372.42,104.28 1371.19,102.00
             1366.52,93.34 1371.89,91.82 1366.00,81.00
             1361.58,90.20 1357.32,99.31 1354.00,109.00
             1351.72,115.67 1350.44,123.19 1345.00,128.00
             1338.74,117.87 1341.32,118.36 1339.33,109.00
             1339.33,109.00 1333.88,86.00 1333.88,86.00
             1333.21,83.15 1331.87,73.29 1328.51,72.73
             1326.44,72.39 1324.39,75.55 1323.48,77.02
             1320.41,81.96 1319.59,87.76 1317.21,93.00
             1317.21,93.00 1307.83,116.00 1307.83,116.00
             1304.88,122.75 1302.14,126.24 1299.91,134.00
             1299.91,134.00 1294.89,152.00 1294.89,152.00
             1294.26,154.52 1293.64,158.70 1291.99,160.67
             1288.86,164.43 1285.25,160.90 1283.35,157.96
             1278.76,150.86 1277.01,147.44 1277.27,139.00
             1277.27,139.00 1277.27,125.00 1277.27,125.00
             1277.56,120.94 1278.86,116.01 1277.27,112.00
             1275.67,105.43 1269.97,105.37 1268.07,98.00
             1268.07,98.00 1265.58,78.00 1265.58,78.00
             1264.04,68.13 1263.08,68.89 1260.92,61.00
             1260.92,61.00 1258.91,53.00 1258.91,53.00
             1258.91,53.00 1253.19,33.00 1253.19,33.00
             1252.65,31.34 1251.56,27.09 1249.54,26.73
             1246.84,26.24 1243.74,33.01 1242.87,35.00
             1242.87,35.00 1233.53,60.00 1233.53,60.00
             1233.00,62.31 1233.09,63.74 1232.97,66.00
             1232.97,66.00 1226.00,103.00 1226.00,103.00
             1225.92,119.36 1219.35,134.83 1213.81,150.00
             1210.98,157.76 1212.16,159.38 1207.82,168.00
             1206.45,170.71 1204.50,174.14 1201.00,174.14
             1196.11,174.14 1191.87,166.69 1189.72,163.00
             1189.72,163.00 1181.87,151.00 1181.87,151.00
             1181.87,151.00 1171.25,130.00 1171.25,130.00
             1166.61,120.72 1162.93,110.97 1160.04,101.00
             1160.04,101.00 1157.96,92.00 1157.96,92.00
             1152.06,71.64 1147.75,59.58 1146.00,38.00
             1140.25,41.32 1133.35,56.33 1132.55,63.00
             1131.98,67.79 1133.87,69.81 1131.39,77.00
             1131.39,77.00 1122.25,94.00 1122.25,94.00
             1119.72,101.46 1122.59,109.61 1118.57,112.26
             1116.15,113.85 1113.88,111.60 1112.30,109.94
             1109.52,107.03 1102.62,98.43 1101.00,95.00
             1096.34,101.20 1096.69,105.80 1093.94,113.00
             1093.94,113.00 1089.45,123.00 1089.45,123.00
             1088.47,125.34 1086.17,132.73 1082.39,130.83
             1078.74,129.00 1079.14,119.55 1078.72,116.00
             1078.72,116.00 1078.13,104.00 1078.13,104.00
             1077.84,96.46 1074.80,89.34 1073.46,82.00
             1073.46,82.00 1072.00,71.00 1072.00,71.00
             1072.00,71.00 1069.00,71.00 1069.00,71.00
             1069.00,71.00 1066.12,80.00 1066.12,80.00
             1063.92,90.05 1065.80,92.42 1058.96,102.00
             1055.93,106.23 1046.79,115.19 1041.02,113.36
             1035.64,111.65 1032.35,102.00 1031.00,97.00
             1024.67,100.29 1019.91,110.99 1015.65,116.99
             1013.07,120.62 1009.97,124.32 1005.00,123.39
             999.58,122.37 984.45,108.59 979.00,107.14
             974.87,106.04 972.02,109.83 968.00,109.36
             964.37,108.94 961.99,105.36 958.00,104.47
             953.82,103.53 948.78,106.37 943.00,105.69
             943.00,105.69 933.00,103.45 933.00,103.45
             917.02,100.23 919.45,100.03 903.00,100.00
             890.61,99.98 890.02,96.21 884.00,96.21
             880.71,96.20 870.95,100.11 867.00,101.28
             859.96,103.37 856.19,103.08 849.00,103.00
             832.28,102.80 824.99,91.72 813.00,93.30
             802.53,94.69 772.33,110.14 760.01,108.89
             754.67,108.35 754.26,105.35 749.99,103.73
             745.44,102.02 740.94,104.23 736.00,101.57
             730.67,98.70 728.25,93.26 723.99,92.90
             719.77,92.54 715.80,97.53 707.00,97.96
             707.00,97.96 678.00,95.19 678.00,95.19
             670.70,95.79 664.11,99.98 657.00,101.54
             651.72,102.60 649.38,101.38 645.00,101.54
             645.00,101.54 621.00,103.89 621.00,103.89
             621.00,103.89 610.00,103.89 610.00,103.89
             605.43,103.16 604.59,101.71 599.00,102.17
             592.80,102.68 588.74,104.27 583.00,105.48
             583.00,105.48 567.00,106.97 567.00,106.97
             567.00,106.97 542.00,104.49 542.00,104.49
             542.00,104.49 530.00,101.41 530.00,101.41
             530.00,101.41 512.00,102.96 512.00,102.96
             512.00,102.96 503.00,102.18 503.00,102.18
             503.00,102.18 491.00,103.00 491.00,103.00
             491.00,103.00 446.00,101.00 446.00,101.00
             446.00,101.00 418.00,102.00 418.00,102.00
             418.00,102.00 394.00,100.84 394.00,100.84
             394.00,100.84 385.00,100.84 385.00,100.84
             385.00,100.84 353.00,100.84 353.00,100.84
             353.00,100.84 336.00,101.99 336.00,101.99
             336.00,101.99 320.00,101.00 320.00,101.00
             320.00,101.00 305.00,102.00 305.00,102.00
             305.00,102.00 271.00,102.00 271.00,102.00
             271.00,102.00 256.00,101.00 256.00,101.00
             256.00,101.00 240.00,101.00 240.00,101.00
             240.00,101.00 227.00,100.32 227.00,100.32
             227.00,100.32 205.00,102.00 205.00,102.00
             205.00,102.00 190.00,102.99 190.00,102.99
             190.00,102.99 175.00,102.00 175.00,102.00
             175.00,102.00 166.00,102.66 166.00,102.66
             166.00,102.66 155.00,102.00 155.00,102.00
             155.00,102.00 122.00,102.00 122.00,102.00
             122.00,102.00 110.00,102.97 110.00,102.97
             110.00,102.97 100.00,102.01 100.00,102.01
             100.00,102.01 82.00,102.01 82.00,102.01
             82.00,102.01 60.00,102.01 60.00,102.01
             60.00,102.01 45.00,102.96 45.00,102.96
             45.00,102.96 34.00,102.00 34.00,102.00
             34.00,102.00 28.00,102.00 28.00,102.00
             28.00,102.00 13.00,103.00 13.00,103.00
             13.00,103.00 0.00,103.00 0.00,103.00
             0.00,103.00 0.00,99.00 0.00,99.00
             0.00,99.00 13.00,99.00 13.00,99.00
             13.00,99.00 33.00,97.34 33.00,97.34
             36.87,97.39 38.90,98.99 48.00,99.00
             48.00,99.00 118.00,99.00 118.00,99.00
             118.00,99.00 133.00,98.00 133.00,98.00
             133.00,98.00 167.00,98.00 167.00,98.00
             167.00,98.00 184.00,97.00 184.00,97.00
             184.00,97.00 228.00,97.00 228.00,97.00
             228.00,97.00 240.00,96.05 240.00,96.05
             240.00,96.05 254.00,96.05 254.00,96.05
             254.00,96.05 267.00,97.00 267.00,97.00
             267.00,97.00 284.00,96.00 284.00,96.00
             284.00,96.00 298.00,96.00 298.00,96.00
             298.00,96.00 370.00,96.00 370.00,96.00
             370.00,96.00 384.00,95.01 384.00,95.01
             384.00,95.01 400.00,96.00 400.00,96.00
             400.00,96.00 414.00,96.97 414.00,96.97
             414.00,96.97 428.00,96.00 428.00,96.00
             428.00,96.00 452.00,96.00 452.00,96.00
             452.00,96.00 479.00,97.29 479.00,97.29
             479.00,97.29 486.00,97.29 486.00,97.29
             486.00,97.29 493.58,98.04 493.58,98.04
             493.58,98.04 503.00,98.04 503.00,98.04
             503.00,98.04 527.00,98.04 527.00,98.04
             527.00,98.04 544.00,97.00 544.00,97.00
             544.00,97.00 617.00,97.00 617.00,97.00
             617.00,97.00 631.00,97.97 631.00,97.97
             631.00,97.97 641.00,96.83 641.00,96.83
             641.00,96.83 651.00,96.83 651.00,96.83
             659.46,95.01 671.79,88.67 680.00,88.21
             680.00,88.21 708.00,91.59 708.00,91.59
             713.92,90.95 719.42,85.77 724.00,85.52
             730.39,85.18 732.47,91.50 738.01,94.59
             744.74,98.33 748.93,96.02 754.00,97.70
             757.94,99.01 760.93,102.40 766.00,102.73
             778.36,103.51 799.08,87.33 815.00,87.02
             829.07,86.74 832.97,95.01 844.00,96.00
             847.53,96.20 860.15,96.76 863.00,96.00
             871.94,94.03 878.43,88.71 889.00,89.04
             896.51,89.28 903.70,90.98 911.00,92.49
             911.00,92.49 923.00,94.26 923.00,94.26
             937.46,96.95 940.67,98.18 956.00,97.91
             967.43,97.86 971.53,91.29 984.00,97.91
             990.61,101.29 993.30,105.91 998.17,110.96
             1000.08,112.94 1002.95,115.76 1005.99,115.18
             1008.88,114.62 1011.07,111.18 1012.74,109.00
             1012.74,109.00 1024.87,93.00 1024.87,93.00
             1026.63,90.20 1028.22,84.59 1031.72,86.17
             1037.46,88.77 1037.41,104.18 1045.17,102.69
             1047.48,102.25 1050.96,100.03 1052.71,98.47
             1062.89,89.46 1058.11,82.95 1061.36,73.00
             1062.46,69.64 1066.17,61.00 1070.82,62.34
             1074.58,63.42 1077.15,71.52 1077.70,75.00
             1077.70,75.00 1085.00,112.00 1085.00,112.00
             1091.39,106.68 1092.46,94.68 1095.88,87.00
             1097.07,84.32 1099.20,79.72 1102.92,81.17
             1110.11,83.97 1107.04,95.09 1116.00,102.00
             1116.00,102.00 1120.03,90.00 1120.03,90.00 Z"
	style="fill:#AAAAAA;stroke:none"  />
</svg>
